<?xml version="1.0" encoding="UTF-8" standalone="no"?>
<!-- Created with matplotlib (http://matplotlib.org/) -->

<svg
   xmlns:dc="http://purl.org/dc/elements/1.1/"
   xmlns:cc="http://creativecommons.org/ns#"
   xmlns:rdf="http://www.w3.org/1999/02/22-rdf-syntax-ns#"
   xmlns:svg="http://www.w3.org/2000/svg"
   xmlns="http://www.w3.org/2000/svg"
   xmlns:sodipodi="http://sodipodi.sourceforge.net/DTD/sodipodi-0.dtd"
   xmlns:inkscape="http://www.inkscape.org/namespaces/inkscape"
   height="80mm"
   version="1.1"
   viewBox="0 0 226.77165 226.77166"
   width="80mm"
   id="svg5201"
   sodipodi:docname="strujnice_abcd.svg"
   inkscape:version="0.92.0 r">
  <metadata
     id="metadata5205">
    <rdf:RDF>
      <cc:Work
         rdf:about="">
        <dc:format>image/svg+xml</dc:format>
        <dc:type
           rdf:resource="http://purl.org/dc/dcmitype/StillImage" />
        <dc:title></dc:title>
      </cc:Work>
    </rdf:RDF>
  </metadata>
  <sodipodi:namedview
     pagecolor="#ffffff"
     bordercolor="#666666"
     borderopacity="1"
     objecttolerance="10"
     gridtolerance="10"
     guidetolerance="10"
     inkscape:pageopacity="0"
     inkscape:pageshadow="2"
     inkscape:window-width="1920"
     inkscape:window-height="1015"
     id="namedview5203"
     showgrid="false"
     inkscape:zoom="1.6698113"
     inkscape:cx="346.18237"
     inkscape:cy="75.452407"
     inkscape:window-x="0"
     inkscape:window-y="0"
     inkscape:window-maximized="1"
     inkscape:current-layer="svg5201"
     units="mm"
     width="20mm" />
  <defs
     id="defs4894"
     style="stroke-linecap:butt;stroke-linejoin:round">
    <style
       type="text/css"
       id="style4892">
*{stroke-linecap:butt;stroke-linejoin:round;}
  </style>
  </defs>
  <defs
     id="defs5199">
    <clipPath
       id="p2508619c7c"
       style="stroke-linecap:butt;stroke-linejoin:round">
      <rect
         height="531.11517"
         width="558"
         x="90"
         y="82.771202"
         id="rect5196"
         style="stroke-linecap:butt;stroke-linejoin:round" />
    </clipPath>
  </defs>
  <g
     id="g5672"
     style="stroke-linecap:butt;stroke-linejoin:round"
     transform="matrix(0.64302949,0,0,0.71670903,-83.356239,-195.40955)">
    <g
       style="stroke-linecap:butt;stroke-linejoin:round"
       id="LineCollection_1">
      <path
         sodipodi:nodetypes="cccccccccccccccccccccccccccccccccccccccccccccccccccccc"
         inkscape:connector-curvature="0"
         id="path5125"
         style="fill:none;stroke:#000000;stroke-width:1.5;stroke-linecap:butt;stroke-linejoin:round"
         d="m 137.14136,299.55291 1.68362,10.83909 1.80833,10.83909 1.94744,10.83908 2.10323,10.83909 2.25478,10.73069 0.0237,0.10839 2.47663,10.83909 2.70178,10.83908 2.95909,10.83909 3.22653,10.74876 0.0285,0.0903 3.59763,10.83908 3.99737,10.83909 3.76429,9.21322 0.70336,1.62586 5.0261,10.83909 5.65829,10.77134 0.038,0.0677 6.51,10.83909 4.8398,7.16584 2.67174,3.67325 8.71601,10.78489 0.0474,0.0542 10.35682,10.83909 0.98349,0.9361 11.38775,9.85782 0.0569,0.0452 11.33082,8.29607 3.85918,2.54302 7.52857,4.60661 11.38776,6.19634 0.0712,0.0361 11.31658,5.38568 11.38776,4.78394 1.70816,0.66947 9.67959,3.58292 11.38776,3.80477 11.38775,3.4243 0.0949,0.0271 11.29286,3.07107 11.38775,2.81652 11.38776,2.57161 11.38775,2.3573 0.11388,0.0226 11.27388,2.14614 11.38775,2.0019 11.38776,1.8536 11.38775,1.72121 11.38776,1.6025 11.38775,1.49567 0.14235,0.0181 11.24541,1.38111 11.38775,1.31172"
         clip-path="url(#p2508619c7c)" />
    </g>
    <g
       style="stroke-linecap:butt;stroke-linejoin:round"
       id="LineCollection_2">
      <path
         sodipodi:nodetypes="ccccccccccccccccccccccccccccccccccccccccccccccccc"
         inkscape:connector-curvature="0"
         id="path5128"
         style="fill:none;stroke:#000000;stroke-width:1.5;stroke-linecap:butt;stroke-linejoin:round"
         d="m 181.10205,288.57834 0.038,0.13549 3.14276,10.83908 3.36724,10.83909 3.61667,10.83909 1.22313,3.49259 2.67174,7.34649 4.20646,10.83909 4.50955,10.73069 0.0474,0.10839 4.95326,10.83909 5.40356,10.83908 0.98349,1.87221 4.93469,8.96688 6.45306,10.74876 0.0569,0.0903 7.19526,10.83908 4.13556,5.75305 3.85918,5.08604 7.52857,9.21322 1.40672,1.62586 9.98104,10.76683 0.0712,0.0723 11.31658,10.77134 0.0759,0.0677 11.31184,9.50014 1.70816,1.33895 9.67959,7.16584 5.34349,3.67325 6.04427,3.93629 11.38775,6.8486 0.0949,0.0542 11.29286,6.14215 9.42078,4.69694 1.96697,0.9361 11.38776,5.14321 11.38775,4.71461 0.11388,0.0452 11.27388,4.29228 11.38775,4.00379 7.71837,2.54302 3.66939,1.1642 11.38775,3.44241 11.38776,3.20501 11.38775,2.99133 0.14235,0.0361 11.24541,2.76222 11.38775,2.62346 11.38776,2.46445"
         clip-path="url(#p2508619c7c)" />
    </g>
    <g
       style="stroke-linecap:butt;stroke-linejoin:round"
       id="LineCollection_3">
      <path
         sodipodi:nodetypes="cccccccccccccccccccccccccccccccccccccccccccc"
         inkscape:connector-curvature="0"
         id="path5131"
         style="fill:none;stroke:#000000;stroke-width:1.5;stroke-linecap:butt;stroke-linejoin:round"
         d="m 222.29999,277.87474 4.35306,10.7036 0.0569,0.13549 4.71414,10.83908 5.05086,10.83909 1.56582,3.21004 3.85918,7.62905 5.84231,10.83908 1.68626,2.98075 4.62343,7.85834 6.76433,10.73069 0.0712,0.10839 7.42989,10.83909 3.88669,5.31792 4.21865,5.52116 7.16911,8.83067 1.70816,2.00842 9.67959,10.74876 0.0854,0.0903 10.79289,10.83908 0.50946,0.48491 11.38775,10.27288 0.0949,0.0813 11.29286,9.21322 2.11008,1.62586 9.27767,6.8237 5.80064,4.01539 5.58712,3.69943 11.38775,7.07191 0.11388,0.0677 11.27388,6.43842 8.25612,4.40067 3.13163,1.60502 11.38776,5.56082 8.01523,3.67325 3.37252,1.49037 11.38776,4.80751 11.38775,4.48701 0.14235,0.0542 11.24541,4.14333 11.38775,3.93518 8.4373,2.76058 2.95046,0.9361 11.38775,3.47923"
         clip-path="url(#p2508619c7c)" />
    </g>
    <g
       transform="matrix(1,0,0,0.13606554,-360,455.24553)"
       style="stroke:#007bc6;stroke-width:3.84233046;stroke-linecap:butt;stroke-linejoin:round;stroke-miterlimit:4;stroke-dasharray:none;stroke-opacity:1"
       id="patch_4">
      <path
         inkscape:connector-curvature="0"
         id="path5185"
         style="fill:none;stroke:#007bc6;stroke-width:3.84233046;stroke-linecap:square;stroke-linejoin:miter;stroke-miterlimit:4;stroke-dasharray:none;stroke-opacity:1"
         d="M 648,613.8864 V 82.7712" />
    </g>
    <g
       transform="matrix(0.18015427,0,0,1,173.17003,381.56779)"
       style="stroke:#007bc6;stroke-width:3.33923125;stroke-linecap:butt;stroke-linejoin:round;stroke-miterlimit:4;stroke-dasharray:none;stroke-opacity:1"
       id="patch_6">
      <path
         inkscape:connector-curvature="0"
         id="path5191"
         style="fill:none;stroke:#007bc6;stroke-width:3.33923125;stroke-linecap:square;stroke-linejoin:miter;stroke-miterlimit:4;stroke-dasharray:none;stroke-opacity:1"
         d="M 90,82.7712 H 648" />
    </g>
    <text
       id="text5646"
       y="573.33472"
       x="276.07175"
       style="font-style:normal;font-weight:normal;font-size:13.99999905px;line-height:18.75px;font-family:sans-serif;letter-spacing:0px;word-spacing:0px;fill:#000000;fill-opacity:1;stroke:none;stroke-width:0.75px;stroke-linecap:butt;stroke-linejoin:miter;stroke-opacity:1"
       xml:space="preserve"><tspan
         y="573.33472"
         x="276.07175"
         style="font-size:35.00000763px;stroke-width:0.75px;stroke-linecap:butt;stroke-linejoin:round"
         id="tspan5644"
         sodipodi:role="line">A</tspan></text>
    <text
       id="text5650"
       y="465.81604"
       x="291.74695"
       style="font-style:normal;font-weight:normal;font-size:13.99999905px;line-height:18.75px;font-family:sans-serif;letter-spacing:0px;word-spacing:0px;fill:#000000;fill-opacity:1;stroke:none;stroke-width:0.75px;stroke-linecap:butt;stroke-linejoin:miter;stroke-opacity:1"
       xml:space="preserve"><tspan
         y="465.81604"
         x="291.74695"
         style="font-size:35px;stroke-width:0.75px;stroke-linecap:butt;stroke-linejoin:round"
         id="tspan5648"
         sodipodi:role="line">B</tspan></text>
    <text
       id="text5654"
       y="476.04852"
       x="156.62524"
       style="font-style:normal;font-weight:normal;font-size:13.99999905px;line-height:18.75px;font-family:sans-serif;letter-spacing:0px;word-spacing:0px;fill:#000000;fill-opacity:1;stroke:none;stroke-width:0.75px;stroke-linecap:butt;stroke-linejoin:miter;stroke-opacity:1"
       xml:space="preserve"><tspan
         y="476.04852"
         x="156.62524"
         style="font-size:35px;stroke-width:0.75px;stroke-linecap:butt;stroke-linejoin:round"
         id="tspan5652"
         sodipodi:role="line">C</tspan></text>
  </g>
</svg>
